<?xml version="1.0" standalone="no"?>
<!DOCTYPE svg PUBLIC "-//W3C//DTD SVG 20010904//EN"
 "http://www.w3.org/TR/2001/REC-SVG-20010904/DTD/svg10.dtd">
<svg version="1.0" xmlns="http://www.w3.org/2000/svg"
 width="300.000000pt" height="300.000000pt" viewBox="0 0 300.000000 300.000000"
 preserveAspectRatio="xMidYMid meet">
<metadata>
Created by potrace 1.10, written by Peter Selinger 2001-2011
</metadata>
<g transform="translate(0.000000,300.000000) scale(0.100000,-0.100000)"
fill="#ffffff" stroke="none">
<path d="M1442 2733 c-68 -33 -67 -24 -70 -568 -2 -269 0 -514 3 -543 8 -64
41 -107 95 -123 32 -10 44 -9 76 7 21 11 47 32 58 47 21 28 21 39 21 565 0
599 2 582 -69 616 -43 20 -72 20 -114 -1z"/>
<path d="M2173 2485 c-50 -22 -82 -87 -69 -141 4 -14 47 -69 97 -121 188 -196
281 -405 296 -658 36 -616 -492 -1124 -1098 -1057 -675 75 -1081 771 -816
1398 48 114 112 208 216 318 84 88 91 98 91 136 0 81 -49 130 -129 130 -32 0
-49 -8 -89 -42 -195 -167 -339 -420 -399 -698 -25 -118 -24 -371 1 -490 97
-453 418 -811 850 -949 311 -100 627 -76 921 69 416 204 677 600 701 1065 19
359 -114 704 -371 958 -94 94 -136 111 -202 82z"/>
</g>
</svg>
